<?xml version="1.0" encoding="utf-8"?>
<!-- Generator: Adobe Illustrator 24.1.0, SVG Export Plug-In . SVG Version: 6.00 Build 0)  -->
<svg version="1.1" id="Layer_1" xmlns="http://www.w3.org/2000/svg" xmlns:xlink="http://www.w3.org/1999/xlink" x="0px" y="0px"
	 viewBox="0 0 129.92 33.83" style="enable-background:new 0 0 129.92 33.83;" xml:space="preserve">
<style type="text/css">
	.st0{fill:#1E9CBF;}
	.st1{fill:#E58325;}
</style>
<g>
	<path class="st0" d="M4.36,22.48c-0.26-0.27-0.39-0.77-0.39-1.51c0-0.5,0.05-1.14,0.16-1.93c0.1-0.78,0.28-1.86,0.52-3.23
		c0.42-2.53,0.75-4.73,0.99-6.59C5.79,8.06,5.86,7.1,5.86,6.32c0-0.73-0.27-1.09-0.8-1.09c-0.42,0-0.92,0.21-1.51,0.64
		S2.31,6.98,1.6,7.92C1.37,8.23,1.12,8.38,0.85,8.38c-0.23,0-0.42-0.11-0.59-0.33S0,7.59,0,7.31c0-0.26,0.05-0.52,0.16-0.79
		c0.1-0.27,0.28-0.57,0.52-0.91C1.45,4.54,2.32,3.7,3.27,3.11c0.95-0.59,1.9-0.88,2.86-0.88c0.89,0,1.57,0.28,2.05,0.85
		c0.48,0.57,0.71,1.39,0.71,2.47c0,0.44-0.04,0.95-0.12,1.54C8.69,7.67,8.61,8.15,8.55,8.52C8.48,8.9,8.44,9.15,8.4,9.3
		c0.92-2.63,1.95-4.47,3.1-5.51c1.15-1.04,2.41-1.56,3.78-1.56c1.05,0,1.88,0.37,2.48,1.11s0.91,1.79,0.91,3.15
		c0,0.53-0.07,1.19-0.22,1.99c0.81-2.23,1.75-3.83,2.83-4.79s2.32-1.45,3.73-1.45c1.13,0,2,0.36,2.6,1.09
		c0.61,0.73,0.91,1.74,0.91,3.05c0,0.71-0.1,1.57-0.31,2.59l-1.48,6.93c-0.16,0.81-0.24,1.5-0.24,2.08c0,0.68,0.16,1.19,0.47,1.53
		c0.31,0.34,0.75,0.51,1.32,0.51c0.53,0,1.05-0.18,1.56-0.53c0.51-0.35,1.11-0.94,1.8-1.77c0.19-0.23,0.41-0.34,0.65-0.34
		c0.21,0,0.38,0.1,0.5,0.29c0.12,0.19,0.18,0.46,0.18,0.8c0,0.63-0.15,1.13-0.46,1.5c-0.84,1.02-1.67,1.76-2.49,2.23
		s-1.69,0.7-2.59,0.7c-1.37,0-2.45-0.41-3.22-1.22c-0.77-0.81-1.16-1.91-1.16-3.28c0-0.95,0.19-2.33,0.58-4.14l0.97-4.43
		c0.03-0.15,0.09-0.4,0.17-0.77c0.08-0.37,0.15-0.72,0.19-1.05c0.05-0.33,0.07-0.66,0.07-0.98c0-0.56-0.11-0.99-0.33-1.27
		c-0.22-0.28-0.53-0.42-0.93-0.42c-0.76,0-1.55,0.49-2.39,1.47c-0.83,0.98-1.62,2.6-2.37,4.85c-0.75,2.26-1.36,5.2-1.83,8.81
		c-0.11,0.97-0.31,1.62-0.59,1.95c-0.28,0.33-0.74,0.5-1.37,0.5c-0.55,0-0.95-0.13-1.2-0.39c-0.25-0.26-0.38-0.74-0.38-1.45
		c0-0.66,0.09-1.53,0.27-2.6c0.18-1.07,0.4-2.34,0.68-3.79c0.74-3.91,1.11-6.43,1.11-7.56c0-0.61-0.12-1.07-0.35-1.36
		S14.78,5.3,14.31,5.3c-0.79,0-1.61,0.45-2.45,1.34c-0.84,0.9-1.66,2.49-2.46,4.77c-0.8,2.28-1.46,5.37-2,9.26
		c-0.11,0.82-0.28,1.4-0.5,1.72c-0.22,0.32-0.64,0.48-1.27,0.48C5.04,22.88,4.62,22.75,4.36,22.48z"/>
	<path class="st0" d="M31.61,21.77c-0.48-0.74-0.71-1.73-0.71-2.95c0-0.73,0.09-1.66,0.28-2.8s0.42-2.2,0.71-3.18
		c0.15-0.52,0.34-0.87,0.58-1.07s0.63-0.29,1.16-0.29c0.82,0,1.24,0.27,1.24,0.82c0,0.4-0.15,1.34-0.46,2.81
		c-0.39,1.78-0.58,2.98-0.58,3.61c0,0.48,0.06,0.86,0.19,1.11c0.13,0.26,0.35,0.39,0.65,0.39c0.29,0,0.65-0.2,1.09-0.61
		c0.44-0.4,1.02-1.04,1.74-1.91c0.19-0.23,0.41-0.34,0.65-0.34c0.21,0,0.38,0.1,0.5,0.29c0.12,0.19,0.18,0.46,0.18,0.8
		c0,0.65-0.15,1.15-0.46,1.5c-1.6,1.95-3.09,2.93-4.48,2.93C32.85,22.88,32.09,22.51,31.61,21.77z M32.57,9.41
		c-0.34-0.31-0.51-0.75-0.51-1.32c0-0.56,0.22-1.04,0.67-1.42c0.44-0.38,1-0.57,1.66-0.57c0.6,0,1.08,0.15,1.45,0.44
		c0.37,0.29,0.56,0.7,0.56,1.24c0,0.65-0.21,1.16-0.63,1.54c-0.42,0.38-0.98,0.57-1.67,0.57C33.42,9.88,32.91,9.72,32.57,9.41z"/>
	<path class="st0" d="M37.21,21.92c-0.25-0.65-0.38-1.68-0.38-3.1c0-2.1,0.3-4.09,0.9-5.98c0.15-0.47,0.38-0.81,0.71-1.03
		c0.33-0.22,0.79-0.33,1.39-0.33c0.32,0,0.55,0.04,0.68,0.12c0.13,0.08,0.19,0.23,0.19,0.46c0,0.26-0.12,0.84-0.36,1.74
		c-0.16,0.65-0.29,1.21-0.39,1.7c-0.1,0.48-0.18,1.08-0.24,1.79c0.53-1.39,1.13-2.52,1.79-3.39c0.66-0.87,1.31-1.49,1.95-1.86
		c0.64-0.37,1.22-0.56,1.76-0.56c1.05,0,1.57,0.52,1.57,1.57c0,0.63-0.18,1.77-0.53,3.41c-0.31,1.4-0.46,2.33-0.46,2.79
		c0,0.65,0.23,0.97,0.7,0.97c0.32,0,0.71-0.2,1.15-0.59c0.44-0.4,1.04-1.04,1.78-1.92c0.19-0.23,0.41-0.34,0.65-0.34
		c0.21,0,0.38,0.1,0.5,0.29c0.12,0.19,0.18,0.46,0.18,0.8c0,0.65-0.15,1.15-0.46,1.5c-0.69,0.86-1.44,1.56-2.24,2.11
		s-1.71,0.82-2.72,0.82c-0.82,0-1.45-0.24-1.86-0.71c-0.42-0.48-0.63-1.17-0.63-2.07c0-0.45,0.11-1.26,0.34-2.42
		c0.21-1.02,0.31-1.72,0.31-2.11c0-0.26-0.09-0.39-0.27-0.39c-0.21,0-0.5,0.27-0.88,0.81c-0.38,0.54-0.77,1.26-1.16,2.14
		c-0.4,0.89-0.71,1.82-0.96,2.81c-0.18,0.76-0.38,1.27-0.62,1.54c-0.23,0.27-0.6,0.4-1.1,0.4C37.89,22.88,37.46,22.56,37.21,21.92z"
		/>
	<path class="st0" d="M58.45,11.88c0.27,0.27,0.4,0.66,0.4,1.17c0,0.42-0.09,1.21-0.27,2.37c-0.16,0.98-0.29,1.92-0.39,2.8
		c-0.1,0.88-0.15,1.86-0.15,2.94c0,0.61-0.12,1.05-0.38,1.32c-0.25,0.27-0.66,0.4-1.22,0.4c-0.53,0-0.92-0.14-1.16-0.41
		s-0.36-0.69-0.36-1.23c0-0.65,0.11-1.71,0.34-3.2c0.19-1.29,0.29-2.11,0.29-2.47c0-0.26-0.09-0.39-0.27-0.39
		c-0.21,0-0.51,0.27-0.9,0.81c-0.39,0.54-0.77,1.26-1.16,2.14c-0.39,0.89-0.7,1.82-0.94,2.81c-0.18,0.76-0.38,1.27-0.62,1.54
		c-0.23,0.27-0.6,0.4-1.1,0.4s-0.87-0.18-1.1-0.54c-0.23-0.36-0.39-0.92-0.47-1.68c-0.08-0.76-0.12-1.87-0.12-3.34
		c0-2.49,0.25-5.08,0.76-7.77c0.51-2.7,1.26-4.96,2.25-6.79C52.88,0.92,54.07,0,55.45,0c0.74,0,1.34,0.32,1.8,0.96
		c0.46,0.64,0.69,1.46,0.69,2.48c0,1.63-0.48,3.32-1.43,5.07c-0.95,1.75-2.5,3.8-4.65,6.14c-0.05,0.84-0.07,1.7-0.07,2.59
		c0.53-1.37,1.13-2.49,1.78-3.35c0.65-0.86,1.3-1.48,1.94-1.85c0.64-0.37,1.22-0.56,1.76-0.56C57.79,11.48,58.18,11.61,58.45,11.88z
		 M53.98,3.64c-0.35,0.83-0.7,1.95-1.03,3.37c-0.33,1.41-0.6,2.95-0.81,4.61c1-1.18,1.83-2.46,2.48-3.85
		C55.27,6.39,55.6,5.13,55.6,4c0-0.52-0.06-0.91-0.17-1.19c-0.11-0.27-0.27-0.41-0.48-0.41C54.66,2.4,54.33,2.81,53.98,3.64z"/>
	<path class="st0" d="M97.51,17.65c0.12,0.19,0.18,0.46,0.18,0.8c0,0.63-0.15,1.13-0.46,1.5c-0.9,1.08-1.78,1.84-2.63,2.28
		s-1.87,0.65-3.06,0.65c-0.84,0-1.61-0.1-2.32-0.31c-0.71-0.21-1.57-0.52-2.59-0.94c-0.92-0.4-1.81-0.73-2.66-0.99
		c-0.82,1.5-2.06,2.25-3.71,2.25c-0.9,0-1.63-0.21-2.17-0.62s-0.81-0.94-0.81-1.59c0-0.79,0.38-1.45,1.14-1.97
		c0.76-0.52,1.77-0.79,3.03-0.79h0.31l0.44-7.05c0.1-1.61,0.39-2.95,0.87-4s1.15-1.95,2.01-2.69c0.74-0.65,1.59-1.13,2.54-1.47
		c0.95-0.33,1.96-0.5,3.03-0.5c1.74,0,3.08,0.45,4.02,1.36c0.94,0.9,1.4,2.08,1.4,3.54c0,0.98-0.18,1.78-0.53,2.39
		c-0.36,0.61-0.85,0.91-1.48,0.91c-0.45,0-0.81-0.11-1.07-0.33c-0.26-0.22-0.39-0.53-0.39-0.93c0-0.15,0.03-0.41,0.1-0.8
		c0.1-0.45,0.15-0.86,0.15-1.21c0-0.68-0.2-1.21-0.59-1.61c-0.4-0.4-1-0.59-1.8-0.59c-1.42,0-2.52,0.46-3.29,1.39
		s-1.27,2.39-1.48,4.37l-0.56,5.5c-0.08,0.77-0.19,1.44-0.31,2.01c1.03,0.18,2.32,0.46,3.87,0.85c0.9,0.23,1.6,0.39,2.08,0.48
		c0.48,0.1,0.91,0.15,1.28,0.15c0.94,0,1.74-0.16,2.41-0.47c0.67-0.31,1.3-0.82,1.9-1.51c0.19-0.23,0.41-0.34,0.65-0.34
		C97.22,17.36,97.38,17.46,97.51,17.65z"/>
	<path class="st0" d="M110.4,15.64c0.11,0.21,0.17,0.48,0.17,0.8c0,0.77-0.23,1.23-0.7,1.38c-0.97,0.34-2.03,0.53-3.2,0.58
		c-0.31,1.36-0.91,2.44-1.82,3.26c-0.9,0.82-1.93,1.22-3.08,1.22c-0.97,0-1.8-0.23-2.48-0.7s-1.21-1.09-1.56-1.86
		c-0.36-0.77-0.53-1.61-0.53-2.52c0-1.23,0.23-2.32,0.7-3.28c0.47-0.96,1.11-1.71,1.94-2.25s1.74-0.81,2.74-0.81
		c1.23,0,2.22,0.42,2.97,1.27s1.19,1.89,1.32,3.14c0.76-0.05,1.66-0.21,2.71-0.48c0.13-0.03,0.24-0.05,0.34-0.05
		C110.13,15.33,110.29,15.43,110.4,15.64z M103.32,19.69c0.38-0.42,0.63-1.02,0.76-1.82c-0.5-0.34-0.88-0.78-1.15-1.33
		c-0.27-0.55-0.4-1.13-0.4-1.74c0-0.26,0.02-0.52,0.07-0.77h-0.12c-0.65,0-1.18,0.31-1.61,0.93s-0.64,1.5-0.64,2.63
		c0,0.89,0.17,1.57,0.52,2.03c0.35,0.47,0.75,0.7,1.22,0.7C102.49,20.32,102.94,20.11,103.32,19.69z"/>
	<path class="st0" d="M108.81,21.92c-0.25-0.65-0.38-1.68-0.38-3.1c0-2.1,0.3-4.09,0.9-5.98c0.15-0.47,0.38-0.81,0.71-1.03
		c0.33-0.22,0.79-0.33,1.39-0.33c0.32,0,0.55,0.04,0.68,0.12c0.13,0.08,0.19,0.23,0.19,0.46c0,0.26-0.12,0.84-0.36,1.74
		c-0.16,0.65-0.29,1.21-0.39,1.7c-0.1,0.48-0.18,1.08-0.24,1.79c0.53-1.39,1.13-2.52,1.79-3.39c0.66-0.87,1.31-1.49,1.95-1.86
		c0.64-0.37,1.22-0.56,1.76-0.56c1.05,0,1.57,0.52,1.57,1.57c0,0.63-0.18,1.77-0.53,3.41c-0.31,1.4-0.46,2.33-0.46,2.79
		c0,0.65,0.23,0.97,0.7,0.97c0.32,0,0.71-0.2,1.15-0.59c0.44-0.4,1.04-1.04,1.78-1.92c0.19-0.23,0.41-0.34,0.65-0.34
		c0.21,0,0.38,0.1,0.5,0.29c0.12,0.19,0.18,0.46,0.18,0.8c0,0.65-0.15,1.15-0.46,1.5c-0.69,0.86-1.44,1.56-2.24,2.11
		c-0.8,0.55-1.71,0.82-2.72,0.82c-0.82,0-1.45-0.24-1.87-0.71c-0.42-0.48-0.63-1.17-0.63-2.07c0-0.45,0.11-1.26,0.34-2.42
		c0.21-1.02,0.31-1.72,0.31-2.11c0-0.26-0.09-0.39-0.27-0.39c-0.21,0-0.5,0.27-0.88,0.81c-0.38,0.54-0.77,1.26-1.16,2.14
		c-0.4,0.89-0.71,1.82-0.96,2.81c-0.18,0.76-0.38,1.27-0.62,1.54c-0.23,0.27-0.6,0.4-1.1,0.4C109.5,22.88,109.06,22.56,108.81,21.92
		z"/>
	<path class="st0" d="M129.37,12.46c0.17,0.12,0.25,0.36,0.25,0.71c0,0.19-0.01,0.35-0.02,0.46c-0.07,0.5-0.27,1.79-0.61,3.87
		c-0.24,1.4-0.4,2.33-0.46,2.78c-0.61,4.17-1.44,7.45-2.48,9.87c-1.04,2.41-2.43,3.62-4.18,3.62c-0.82,0-1.49-0.25-2.01-0.76
		c-0.52-0.51-0.78-1.17-0.78-2c0-1.15,0.45-2.38,1.36-3.69c0.9-1.32,2.6-2.93,5.09-4.86l0.14-0.94c-0.27,0.44-0.63,0.77-1.08,1
		c-0.44,0.23-0.88,0.35-1.32,0.35c-1,0-1.8-0.36-2.4-1.09c-0.6-0.73-0.9-1.68-0.9-2.86c0-1.29,0.3-2.51,0.9-3.67
		c0.6-1.15,1.39-2.08,2.39-2.78s2.05-1.05,3.16-1.05c0.35,0,0.59,0.07,0.71,0.21c0.12,0.14,0.22,0.38,0.3,0.74
		c0.31-0.06,0.66-0.1,1.07-0.1C128.92,12.28,129.2,12.34,129.37,12.46z M123.51,29.98c0.51-0.97,1-2.51,1.46-4.62
		c-1.24,1.07-2.14,2.03-2.69,2.88c-0.55,0.86-0.82,1.61-0.82,2.25c0,0.27,0.05,0.5,0.16,0.68c0.1,0.18,0.28,0.27,0.52,0.27
		C122.55,31.43,123,30.95,123.51,29.98z M125.22,19.76c0.34-0.45,0.58-1.1,0.73-1.94l0.78-4.14c-0.66,0.02-1.28,0.27-1.84,0.76
		c-0.57,0.49-1.02,1.14-1.36,1.95c-0.34,0.81-0.51,1.66-0.51,2.57c0,0.5,0.1,0.87,0.3,1.11c0.2,0.24,0.48,0.36,0.83,0.36
		C124.53,20.44,124.88,20.21,125.22,19.76z"/>
</g>
<circle class="st1" cx="34.67" cy="7.32" r="3.13"/>
<g>
	<g>
		<path class="st1" d="M65.97,14.91c-0.03,0.38-0.18,2.29-2.24,2.29c-2.12,0-2.36-1.86-2.36-3.86c0-2.41,0.71-3.83,2.44-3.83
			c1.97,0,2.13,1.69,2.16,2.29h-1.32c-0.02-0.25-0.04-1.16-0.86-1.16c-0.84,0-1.04,1.02-1.04,2.73c0,1.4,0.14,2.72,1,2.72
			c0.79,0,0.86-0.9,0.89-1.18H65.97z"/>
		<path class="st1" d="M70.6,15.83c0,0.28,0.02,0.98,0.04,1.24h-1.19c-0.02-0.11-0.05-0.37-0.05-0.53
			c-0.22,0.36-0.59,0.63-1.28,0.63c-1.09,0-1.52-0.87-1.52-1.69c0-1.17,0.8-1.87,2.25-1.87c0.19,0,0.34,0,0.47,0.01V13
			c0-0.33-0.04-0.72-0.61-0.72c-0.55,0-0.61,0.36-0.64,0.73H66.8c0.02-0.84,0.42-1.73,1.94-1.73c1.22,0,1.86,0.55,1.86,1.64V15.83z
			 M69.33,14.58c-0.13-0.02-0.25-0.02-0.43-0.02c-0.75,0-1.02,0.35-1.02,0.81c0,0.35,0.17,0.74,0.65,0.74c0.67,0,0.79-0.5,0.79-1.35
			V14.58z"/>
		<path class="st1" d="M71.89,17.07v-4.62h-0.66v-1.08h0.66v-0.56c0-0.95,0.43-1.64,1.56-1.64c0.2,0,0.42,0.03,0.54,0.06v1.1
			c-0.1-0.02-0.2-0.04-0.31-0.04c-0.38,0-0.48,0.21-0.48,0.6v0.46h0.81v1.08H73.2v4.62H71.89z"/>
		<path class="st1" d="M75.62,14.57c0,0.72,0.09,1.53,0.82,1.53c0.65,0,0.74-0.56,0.76-0.75h1.26c-0.02,0.18-0.15,1.84-2.04,1.84
			c-1.85,0-2.1-1.55-2.1-2.99c0-1.81,0.69-2.91,2.13-2.91c1.65,0,2.06,1.24,2.06,2.72c0,0.2-0.01,0.47-0.02,0.56H75.62z M77.2,13.62
			c0-0.55-0.06-1.26-0.76-1.26c-0.75,0-0.8,0.85-0.8,1.26H77.2z"/>
	</g>
</g>
</svg>
